<?xml version="1.0" encoding="utf-8"?>
<!-- Generator: Adobe Illustrator 25.3.1, SVG Export Plug-In . SVG Version: 6.00 Build 0)  -->
<svg version="1.1" id="Layer_1" xmlns="http://www.w3.org/2000/svg" xmlns:xlink="http://www.w3.org/1999/xlink" x="0px" y="0px"
	 viewBox="0 0 2048 2048" style="enable-background:new 0 0 2048 2048;" xml:space="preserve">
<style type="text/css">
	.st0{fill:#317BC8;}
	.st1{fill:#98D6FF;}
	.st2{fill:#C3E5F4;}
	.st3{fill:#403E55;}
	.st4{fill:#FFB8BA;}
	.st5{fill:#EFEFEF;}
	.st6{fill:#CCEDFF;}
	.st7{fill:#E1F6FF;}
</style>
<g>
	<g>
		<g>
			<g>
				<path class="st0" d="M476.46,1015.16c0.92-0.42,1.5-1.4,1.37-2.46c-22.93-191.16,53.46-387.93,199.37-513.54
					c1-0.86,1.11-2.37,0.25-3.37c-0.86-1-2.37-1.11-3.37-0.25c-71.68,61.7-128.35,142.71-163.89,234.26
					c-35.54,91.55-48.37,189.57-37.11,283.47c0.16,1.31,1.35,2.24,2.66,2.09C476,1015.33,476.24,1015.26,476.46,1015.16z"/>
			</g>
			<path class="st0" d="M690.19,498.42c13.24-5.79,26.6-13.32,33.94-25.77c2.3-3.9,3.96-8.36,3.56-12.86
				c-0.4-4.5-3.24-8.99-7.57-10.3c-2.63-0.8-5.46-0.38-8.14,0.19c-25.45,5.48-46.84,26.63-52.61,52.02
				c-0.95,4.2-1.58,15.67-6.9,16.11C662.73,508.33,677.63,503.92,690.19,498.42z"/>
			<path class="st0" d="M625.01,489.87c-2.36-4.97-5.37-9.69-9.37-13.47c-5.21-4.94-13.44-8.08-19.52-4.26
				c-4.89,3.07-6.53,9.52-6.18,15.28c0.89,14.6,11.31,26.52,18.82,39.07c2.48,4.14,4.67,8.45,6.57,12.89
				c0.82,1.93,3.23,12.42,4.74,12.97c4.71,1.72,8.49-13.99,9.27-17.15C633.03,520.19,631.67,503.87,625.01,489.87z"/>
			<path class="st0" d="M566.39,536.68c-4.54-4.99-10.35-9.58-17.09-9.73c-1.62-0.04-3.31,0.21-4.65,1.13
				c-1.58,1.08-2.44,2.94-2.95,4.79c-2.29,8.26,1.3,17.18,6.81,23.75c5.51,6.56,12.77,11.36,19.46,16.71
				c7.72,6.18,13.01,12.74,16.6,21.93C589.64,575.75,579.37,550.94,566.39,536.68z"/>
			<path class="st0" d="M548.35,616.19c-1.84-7.8-4.91-15.48-10.18-21.53c-5.26-6.05-12.95-10.3-20.97-10.15
				c-4.48,0.08-9.26,1.81-11.55,5.66c-2.97,4.99-0.74,11.49,2.57,16.26c5.78,8.34,14.39,14.18,22.03,20.86
				c7.31,6.38,12.42,13.79,18.5,21.05c2.75-3.28,1.87-11,1.78-15.1C550.39,627.5,549.66,621.77,548.35,616.19z"/>
			<path class="st0" d="M520.77,674c-3.67-8.96-10.07-17-18.65-21.48c-7.44-3.88-16.92-4.77-24.04-0.34
				c-1.92,1.19-3.67,2.82-4.45,4.93c-1.22,3.32,0.22,7.07,2.35,9.9c5.73,7.64,15.54,10.66,24.1,14.89
				c9.92,4.89,16.41,12.43,24.87,18.95C527.86,694.06,523.45,680.53,520.77,674z"/>
			<path class="st0" d="M503.73,743.79c-4-8.45-8.02-16.95-13.35-24.64c-5.33-7.68-12.08-14.58-20.42-18.81
				c-3.41-1.73-7.21-3.01-11.01-2.6c-3.8,0.42-7.56,2.89-8.56,6.58c-1.12,4.13,1.34,8.34,4,11.69c5.07,6.36,11.32,11.77,18.33,15.88
				c6.56,3.85,13.73,6.54,20.47,10.06c5.31,2.78,10.56,6.17,14.44,10.82C506.62,749.68,505.12,746.73,503.73,743.79z"/>
			<path class="st0" d="M483.54,831.34c5.22-20.57-1.42-42.74-13.24-60.38c-8.69-12.97-21.49-24.72-37.05-25.97
				c-3.01-0.24-6.4,0.07-8.42,2.32c-1.76,1.96-1.97,4.97-1.12,7.46c0.85,2.5,2.6,4.58,4.43,6.48
				c15.74,16.39,39.93,24.08,52.17,43.22c2.84,4.44,4.9,9.34,6.66,14.31L483.54,831.34z"/>
			<path class="st0" d="M505.57,772.09c10.25-8.74,23.44-15.43,36.7-14.57c4.62,0.3,9.88,2.31,10.46,6.65
				c0.27,2.04-0.62,4.17-1.96,5.89c-3.09,3.97-8.3,6-13.34,6.71c-5.04,0.72-10.1,0.34-15.16,0.63c-8.67,0.49-15.3,4-23.41,6.29
				c-3.8,1.08-4.59,1.58-2.65-2.36C497.83,778.05,502.75,774.5,505.57,772.09z"/>
			<path class="st0" d="M561.02,701.28c3.62-0.42,7.42-0.45,10.78,0.95c3.37,1.41,6.21,4.54,6.36,8.19
				c0.14,3.52-2.19,6.69-4.92,8.92c-8.11,6.62-19.51,7.03-29.97,6.68c-9.78-0.32-18.38,1.25-27.8,2.36
				c0.7-6.6,12.77-13.51,17.86-16.75C541.71,706.3,551.1,702.43,561.02,701.28z"/>
			<path class="st0" d="M561.26,642.72c5.02-4.03,10.22-7.88,15.99-10.75c5.76-2.86,12.14-4.7,18.57-4.51
				c7.23,0.22,14.35,3.1,19.71,7.97c2.27,2.07,4.34,4.8,4.17,7.86c-0.14,2.45-1.73,4.63-3.72,6.05c-2,1.42-4.38,2.17-6.74,2.84
				c-9.1,2.56-18.52,3.97-27.96,4.24c-4.72,0.13-9.46-0.02-14.16-0.47c-2.43-0.23-4.85-0.54-7.27-0.92
				c-1.84-0.29-5.28-0.29-6.85-1.31C548.89,651.07,559.24,644.34,561.26,642.72z"/>
			<path class="st0" d="M626.75,562.63c9.08-2.76,19.02-3.5,28.01-0.45c1.97,0.67,3.93,1.54,5.4,3.01s2.38,3.64,1.9,5.66
				c-0.5,2.11-2.33,3.62-4.19,4.73c-5.05,3.01-11.02,4.2-16.9,4.33c-5.88,0.13-11.73-0.75-17.54-1.63
				c-5.66-0.86-11.32-1.71-16.98-2.57c-1.68-0.25-4.05,0.12-5.49-0.55c3.17-2.99,8.49-5.08,12.41-7.05
				C617.68,565.95,622.13,564.04,626.75,562.63z"/>
			<path class="st0" d="M670.98,519.27c10.28-2.68,21.1-3.85,31.55-1.97c3.53,0.64,7.46,2.01,8.8,5.34c1.07,2.68,0.03,5.8-1.71,8.1
				c-2.73,3.62-7.03,5.82-11.47,6.72c-4.44,0.9-9.04,0.6-13.52-0.05c-7.43-1.08-14.69-3.08-22.02-4.66
				c-3.67-0.79-7.37-1.49-11.1-1.91c-3.06-0.34-6.89,0.24-9.73-0.51c2.88-2.74,8.47-3.97,12.1-5.39
				C659.46,522.78,665.15,520.79,670.98,519.27z"/>
		</g>
		<path class="st0" d="M1564.1,1151.77c1.27-2.1,2.66-4.24,4.17-6.37c9.86-13.89,24.69-27.05,42.62-23
			c8.32,1.88,15.73,8.55,17.14,16.96c0.43,2.54,0.31,5.21-0.56,7.64c-2.38,6.66-9.65,10.16-16.48,11.99
			c-7.87,2.09-14.7,1.64-22.7,1.97c-7.64,0.31-15.5,1.9-21.7,6.62c-3.31,2.53-5.95,5.76-8.29,9.23
			c-6.49,16.48-14.27,32.63-23.26,48.32c5.59-1.32,11.43-1.63,17.17-1.13c1.91,0.16,3.89,0.4,5.9,0.73
			c13.13,2.12,27.46,7.96,30.82,21.92c1.55,6.47-0.57,13.97-5.97,17.86c-1.64,1.18-3.54,2.01-5.55,2.24
			c-5.49,0.63-10.44-3.25-14.08-7.41c-4.18-4.79-6.22-9.74-9.21-15.23c-2.85-5.25-6.68-10.2-12.13-12.92
			c-2.8-1.4-5.85-2.12-8.96-2.57c-7.35,12.53-15.48,24.76-24.33,36.61c6.64-2.15,13.8-2.74,20.77-2.14c1.91,0.16,3.89,0.4,5.9,0.73
			c13.13,2.12,27.46,7.96,30.82,21.92c1.55,6.47-0.57,13.97-5.97,17.86c-1.64,1.18-3.54,2.01-5.55,2.24
			c-5.49,0.63-10.44-3.24-14.08-7.41c-4.18-4.79-6.22-9.74-9.21-15.23c-2.85-5.25-6.68-10.2-12.13-12.92
			c-3.75-1.87-7.94-2.53-12.14-2.94c-8.46,11.19-17.56,22.03-27.28,32.5c6.03-1.63,12.4-2.05,18.64-1.51
			c1.91,0.16,3.89,0.4,5.9,0.73c13.13,2.12,27.46,7.96,30.82,21.92c1.55,6.47-0.57,13.97-5.97,17.86c-1.64,1.18-3.54,2.01-5.55,2.24
			c-5.49,0.63-10.44-3.24-14.08-7.41c-4.18-4.79-6.22-9.74-9.21-15.23c-2.85-5.25-6.68-10.2-12.13-12.92
			c-3.43-1.71-7.24-2.41-11.09-2.83c-8.66,9.17-17.8,18.03-27.38,26.55c-3.98,3.54-8.04,7.02-12.16,10.43
			c5.15-1.05,10.47-1.27,15.7-0.82c1.91,0.16,3.89,0.4,5.9,0.73c13.13,2.12,27.46,7.96,30.82,21.92c1.55,6.47-0.57,13.97-5.97,17.86
			c-1.64,1.18-3.54,2.01-5.55,2.24c-5.49,0.63-10.44-3.24-14.08-7.41c-4.18-4.79-6.22-9.74-9.21-15.23
			c-2.85-5.25-6.68-10.2-12.13-12.92c-3.11-1.55-6.52-2.27-9.98-2.69c-12.59,10.17-25.82,19.81-39.68,28.88
			c6.06-1.65,12.48-2.09,18.77-1.54c1.91,0.16,3.89,0.4,5.9,0.73c13.13,2.12,27.46,7.96,30.82,21.92
			c1.55,6.47-0.57,13.97-5.97,17.86c-1.64,1.18-3.54,2.01-5.55,2.24c-5.49,0.63-10.44-3.24-14.08-7.41
			c-4.18-4.79-6.22-9.74-9.21-15.23c-2.85-5.25-6.68-10.2-12.13-12.92c-3.91-1.95-8.29-2.59-12.67-2.99
			c-33.36,21.38-70.28,39.59-110.38,54.39c-11.35,4.19-20.86,7.34-29.93,9.89c-1.23,0.34-2.51-0.37-2.87-1.6
			c-0.04-0.14-0.07-0.29-0.08-0.42c-0.1-1.1,0.59-2.14,1.68-2.45c8.95-2.52,18.35-5.63,29.59-9.78
			c38.77-14.32,74.51-31.81,106.91-52.31c-0.36-5.72-1-11.48-3.42-16.65c-3.29-7.07-9.52-12.13-16.13-15.96
			c-6.92-4.01-13.19-6.79-19.17-12.3c-5.2-4.79-10-11.27-9.01-18.28c0.37-2.55,1.5-4.97,3.06-7.02c5.16-6.79,14.83-9.25,23.07-7.04
			c17.75,4.76,24.75,23.31,27.01,40.19c0.35,2.58,0.58,5.13,0.73,7.57c0.57,9.54-0.6,19.27-4.06,28.15
			c14.95-9.56,29.19-19.75,42.67-30.57c-0.36-5.57-1.04-11.16-3.38-16.19c-3.29-7.07-9.52-12.13-16.13-15.96
			c-6.92-4.01-13.19-6.79-19.17-12.3c-5.2-4.79-10-11.27-9.01-18.28c0.37-2.55,1.5-4.97,3.06-7.02c5.16-6.79,14.83-9.25,23.07-7.04
			c17.75,4.76,24.75,23.31,27.01,40.19c0.35,2.58,0.58,5.13,0.73,7.57c0.55,9.1-0.49,18.38-3.59,26.93
			c5.16-4.2,10.2-8.48,15.13-12.87c8.96-7.97,17.51-16.24,25.66-24.78c-1-4.97-2.36-9.86-5.02-14.14
			c-4.13-6.62-10.91-10.89-17.94-13.9c-7.35-3.15-13.91-5.14-20.52-9.89c-5.74-4.13-11.29-9.98-11.15-17.06
			c0.05-2.59,0.88-5.11,2.18-7.34c4.3-7.37,13.6-10.97,22.04-9.78c18.2,2.58,27.39,20.15,31.67,36.63c0.65,2.52,1.2,5.02,1.64,7.43
			c1.5,8.16,1.7,16.62,0.19,24.75c9.62-10.3,18.65-20.96,27.03-31.97c-0.61-5.52-1.53-11.04-4.08-15.93
			c-3.6-6.92-10.04-11.7-16.81-15.24c-7.09-3.7-13.48-6.2-19.7-11.45c-5.4-4.56-10.48-10.82-9.79-17.86
			c0.24-2.57,1.27-5.03,2.74-7.15c4.86-7.01,14.41-9.89,22.74-8.05c17.95,3.98,25.75,22.2,28.76,38.96c0.46,2.57,0.8,5.1,1.06,7.53
			c0.88,8.39,0.4,16.97-1.82,25.08c7.23-9.73,13.95-19.71,20.16-29.89c1.01-6.25,1.88-12.65,0.5-18.8
			c-1.72-7.61-6.71-13.88-12.35-19.03c-5.91-5.39-11.44-9.44-16.11-16.11c-4.06-5.79-7.36-13.15-4.9-19.77
			c0.9-2.42,2.52-4.54,4.49-6.21c6.49-5.53,16.46-5.87,24.04-1.96c16.33,8.43,19.21,28.05,17.83,45.02c-0.21,2.6-0.52,5.13-0.9,7.55
			c-0.7,4.54-1.83,9.04-3.37,13.37c8.92-16.37,16.53-33.21,22.7-50.37C1559.29,1160.68,1561.5,1156.08,1564.1,1151.77z"/>
		<path class="st1" d="M473.04,1175.56c52.26,43.36,106.15,71.42,148.74,125.88c42.46,54.29,86.61,106.51,132.21,158.22
			c60.43,68.52,137.22,104.85,227.01,117.92c144.89,21.09,264.17-50.56,344.05-167.74c31.25-45.84,54.63-89.59,67.96-143.66
			c16.29-66.08,51.59-89.5,104.49-129.81c52.27-39.84,101.45-83.95,129.58-144.27c41.29-88.53,63.8-179.24,25.35-274.33
			c-23.35-57.74-63.61-109.46-119.03-139.31c-47.89-25.79-97.56-37.69-151-33.48c-0.01,0-0.01,0-0.02,0
			c-26.69,2.11-52.07,7.25-78.94,7.24c-123.53-0.04-214.69-84.95-336.66-90.12c-123.39-5.24-249.19,51-317.55,154.26
			c-25.54,38.57-48.68,79-78.08,114.87c-26.57,32.42-59.81,55.7-90.88,82.9c-32.57,28.52-68.89,53.96-86.91,94.35
			C348.84,1008.34,393.74,1109.75,473.04,1175.56z"/>
	</g>
	<g>
		<ellipse class="st2" cx="1004.22" cy="1735.54" rx="316.62" ry="28.23"/>
		<path class="st3" d="M1008.87,1230.16c9.25,12.16,7,53.26,9.86,71.25c4.75,29.88,10,60.1,16.41,89.72
			c6.97,32.21,12.41,64.93,20.78,96.79c9.84,37.47,13.98,76.29,23.55,114.05c7.09,27.99,11.4,59.98,22.56,86.76
			c1.66,3.98,6.52,14.93,12.71,14.13c8.53-1.11,4.65-18.65,4.32-24.62c-1.52-27.01,3.53-53.77,4.92-80.64
			c2.77-53.43,7.41-105.9,7.46-159.77c0.05-63.73-1.41-128.6-6.16-192.18c-0.51-6.81,1.64-26.68-3.27-32.2
			c-12.06-13.55-48.73,0.02-63.16,2.66c-17.65,3.23-40.39,5.83-55.51,15.85C1005.66,1226.52,1008.33,1221.22,1008.87,1230.16z"/>
		<path class="st3" d="M1098.07,1672.68c-2.39-1.11-4.54-1.92-7.3,0.24c-2.8,2.19-4.23,7.41-4.94,10.57
			c-1.93,8.64,0.13,16.74,2.01,25.18c0.9,4.02-0.42,4.8-0.68,8.34c-0.55,7.33,12.61,12.01,18.81,10.31
			c7.59-2.08,5.56-7.91,12.09-10.95c4.44,4.12,6.58,10.42,11.73,13.64c7.69,4.8,23.02,4.51,31.91,4.9c7.98,0.34,34.51,1.41,37.2-9.9
			c2.73-11.48-19.99-18.67-27.9-21.8c-7.29-2.88-14.78-5.37-21.94-8.55c-7.82-3.48-11.79-8.61-16.96-15.07
			c-2.5-3.13-4.75-8.31-9.04-9.56c-4.05-1.18-4.43,1.31-7.96,2.86c-3.31,1.45-8.75,2.24-12.34,1.57
			C1101,1674.12,1099.5,1673.34,1098.07,1672.68z"/>
		<path class="st3" d="M997.48,1230.16c-9.25,12.16-7,53.26-9.86,71.25c-4.75,29.88-10,60.1-16.41,89.72
			c-6.97,32.21-12.41,64.93-20.78,96.79c-9.84,37.47-13.98,76.29-23.55,114.05c-7.09,27.99-11.4,59.98-22.56,86.76
			c-1.66,3.98-6.52,14.93-12.71,14.13c-8.53-1.11-4.65-18.65-4.32-24.62c1.52-27.01-3.53-53.77-4.92-80.64
			c-2.77-53.43-7.41-105.9-7.46-159.77c-0.05-63.73,1.41-128.6,6.16-192.18c0.51-6.81-1.64-26.68,3.27-32.2
			c12.06-13.55,48.73,0.02,63.16,2.66c17.65,3.23,40.39,5.83,55.51,15.85C1000.69,1226.52,998.02,1221.22,997.48,1230.16z"/>
		<path class="st3" d="M908.27,1672.68c2.39-1.11,4.54-1.92,7.3,0.24c2.8,2.19,4.23,7.41,4.94,10.57
			c1.93,8.64-0.13,16.74-2.01,25.18c-0.9,4.02,0.42,4.8,0.68,8.34c0.55,7.33-12.61,12.01-18.81,10.31
			c-7.59-2.08-5.56-7.91-12.09-10.95c-4.44,4.12-6.58,10.42-11.73,13.64c-7.69,4.8-23.02,4.51-31.91,4.9
			c-7.98,0.34-34.51,1.41-37.2-9.9c-2.73-11.48,19.99-18.67,27.9-21.8c7.29-2.88,14.78-5.37,21.94-8.55
			c7.82-3.48,11.79-8.61,16.96-15.07c2.5-3.13,4.75-8.31,9.04-9.56c4.05-1.18,4.43,1.31,7.96,2.86c3.31,1.45,8.75,2.24,12.34,1.57
			C905.34,1674.12,906.85,1673.34,908.27,1672.68z"/>
		<path class="st2" d="M1117.81,549.71c17.94,3.14,44.49,32.4,56.09,47.87c15.43,20.57,26.26,47.08,28.39,72.14
			c2.55,30.04,0.35,60.63-1,90.54c-0.59,13.09-1.08,27.55,2.04,40.01c3.82,15.24,10.9,29.27,24.36,39.97
			c12.33,9.8,30.76,19.34,38.02,33.53c9.31,18.18,5.1,49.65-14.18,59.84c-21.72,11.48-43.97-1.94-62.14-15.24
			c-36.33-26.59-60.54-49.59-64.28-94.89c-4.91-59.4,0.5-118.62-2.17-177.98c-0.94-20.96-3.66-40.88-3.08-61.92
			C1120.1,574.67,1118.12,564.01,1117.81,549.71z"/>
		<path class="st4" d="M1103.14,359.34c0,17.27-0.12,34.87,1.4,52.02c0.63,7.07,2.23,13.96,2.66,20.92
			c0.6,9.89-0.56,19.57-4.12,29.09c-9.57,25.52-29.73,42.98-58.29,47.02c-17.04,2.41-40.46-3.54-53.72-14.03
			c-8.72-6.89-14.61-16.83-19.93-26.09c-2.62-4.56-4.47-9.01-5.61-14.17c-4.14-18.65-8.4-37.02-7.78-56.23
			c0.52-16.1,2.08-34.19,9.93-48.8c5.46-10.15,15.91-15.31,26.62-19.46c25.21-9.76,58.37-13.33,84.42-4.59
			c12.76,4.28,19.95,14.32,23.27,26.42C1102.56,353.59,1104.78,358.19,1103.14,359.34z"/>
		<path class="st5" d="M835.52,1254.25c1.96,0.53,3.62,0.96,5.03,1.3C838.81,1255.21,837.12,1254.79,835.52,1254.25z"/>
		<path class="st5" d="M840.55,1255.55c2.03,0.38,4.17,0.66,6.36,0.82C845.9,1256.56,843.96,1256.33,840.55,1255.55z"/>
		<path class="st6" d="M1165.64,1249.66c0,0-107.46,1.52-157.61,3.1c-0.92,0.03-1.8,0.05-2.68,0.08c-1.21,0.04-2.38,0.08-3.52,0.12
			c-34.49,1.22-143.74,4.58-157.59,3.47c-0.65-20.03-0.32-27.08-0.32-36.35c0-23.01-0.84-46.15-0.09-69.13
			c2.55-77.79,27.29-207.42,31.4-285.07c3.59-68.27-7.56-133.18-14.46-200.67c-4.09-39.95-5.15-81.31,27.06-109.96
			c6.33-5.63,13.83-10.47,22.03-14.56c10.6-5.31,22.38-9.34,34.32-12.18c2.74-0.66,5.48-1.26,8.22-1.78
			c10.15-1.97,20.24-3.09,29.64-3.4c0.69-0.03,1.37-0.04,2.06-0.05c5.84-0.11,11.75,0.14,17.68,0.53c0.07,0,0.14,0,0.22,0.01
			c0.06,0,0.12,0.01,0.17,0.01c12.26,0.85,24.6,2.38,36.65,2.99c5.62,0.27,11.53,0.55,17.45,1.01c3.36,0.26,6.73,0.57,10.06,0.98
			c0.03,0.01,0.07,0.01,0.1,0.01c5.13,0.66,10.18,1.54,14.97,2.79c3.76,1,7.77,2.21,11.81,3.69c0.46,0.16,0.91,0.33,1.37,0.51
			c0,0,0,0,0.01,0v0.01c7.06,2.68,14.12,6.19,19.91,10.71c4.95,3.82,8.97,8.4,11.3,13.81c9.6,22.22,8.62,54.09,11.84,77.86
			c4.15,30.84,4.7,61.06,3.75,91.98c-1.11,35.26,1.46,70.78,3,106.17C1146.26,879,1168.42,1275.63,1165.64,1249.66z"/>
		<path class="st4" d="M858.61,1002.22c22.05,4.32,25.87,24.45,35.19,39.97c10.5,17.5,30.04,33.59,51.56,18.62
			c22.29-15.5,1.97-42.23-10.42-55.87c7.5,4.93,20.36,18.94,30.59,18.44c11.72-0.57,9-11.86,4.07-17.95
			c-10.66-13.19-31.47-18.66-47.12-21.99c-12.58-2.67-18.77-7.71-28.1-16.45c-7.9-7.39-14.51-8.92-24.71-4.04
			C850.46,972.13,848.17,989.36,858.61,1002.22z"/>
		<path class="st6" d="M909.84,541.13c-12.52,10.16-32.72,16.74-47.55,25.54c-23.44,13.91-40.29,36.15-53.82,58.57
			c-24.31,40.3-43.77,83.28-63.25,125.9c-13.12,28.72-27.14,62.69-27.89,94.46c-0.75,31.61,33.17,66.23,54.36,87.52
			c17.09,17.18,34.78,33.52,51.57,50.95c11.78,12.23,21.63,25.99,36.42,35.27c4.59,2.88,10.71,8.94,15.76,7.85
			c9.84-2.13,18.84-25.76,22.47-33.81c3.25-7.2,6.85-13.3,7.84-21c1.06-8.22-0.5-9.03-6.4-15.54c-8.05-8.88-13.85-19.51-21.78-28.31
			c-9.57-10.62-20.28-20.69-29.45-31.53c-14.01-16.56-27.89-34.67-43.45-49.83c5.09-14.04,12.92-27.74,18.17-41.96
			c6.27-16.97,11.62-34.23,17.92-51.19c9.32-25.1,19.7-48.88,31.28-73.03c16.26-33.91,30.77-72.19,38.6-108.72
			C912.7,562.68,917.58,544.93,909.84,541.13z"/>
		<path class="st6" d="M1094.61,535.45c0,0.11-0.01,0.23-0.01,0.36v0.01c-0.01,0.07-0.01,0.12-0.03,0.19c0,0.07-0.01,0.12-0.01,0.18
			c-0.04,0.33-0.09,0.66-0.14,1c-0.09,0.49-0.2,1-0.33,1.5c-0.04,0.2-0.1,0.42-0.17,0.63c-0.52,1.91-1.24,3.86-1.74,5.61
			c-0.37,1.28-0.76,2.57-1.17,3.85c-0.04,0.16-0.09,0.31-0.14,0.46c-0.33,1.07-0.68,2.12-1.04,3.17c-0.13,0.38-0.26,0.75-0.39,1.12
			c-0.33,0.97-0.68,1.94-1.04,2.91c-5.13,14-11.94,27.64-18.38,41.2c-0.56,1.2-1.12,2.39-1.69,3.58c-0.58,1.23-1.15,2.46-1.72,3.69
			h-0.01c-1.08,2.35-2.15,4.7-3.19,7.05c-5.49,12.5-10.81,25.18-19.12,36.27c-0.01,0.01-0.03,0.04-0.04,0.05v0.01
			c-0.63,0.85-1.28,1.71-1.95,2.59c-0.65,0.85-1.3,1.71-1.98,2.57c-0.01,0.03-0.03,0.05-0.06,0.08c-0.63,0.82-1.28,1.65-1.96,2.47
			c-0.39,0.49-0.78,0.97-1.2,1.46c-0.38,0.44-0.75,0.89-1.12,1.32c-0.66,0.75-1.34,1.5-2.03,2.23c-0.3,0.31-0.59,0.63-0.89,0.93
			c-0.61,0.61-1.23,1.22-1.86,1.8c-0.32,0.29-0.63,0.57-0.95,0.86c-0.32,0.27-0.63,0.55-0.97,0.82c-0.16,0.14-0.33,0.27-0.49,0.4
			c-0.16,0.14-0.33,0.26-0.49,0.38c-0.33,0.26-0.66,0.51-0.99,0.75c-0.45,0.33-0.89,0.63-1.36,0.93c-2.32,1.52-2.93,2.17-3.68,1.93
			c-0.07-0.01-0.16-0.05-0.23-0.1c-0.03-0.01-0.06-0.03-0.09-0.04c-0.09-0.05-0.17-0.12-0.27-0.19c-0.09-0.07-0.19-0.14-0.3-0.22
			c0,0-0.01,0-0.01-0.01c-0.12-0.1-0.26-0.2-0.4-0.31c-0.1-0.1-0.2-0.18-0.32-0.27c-0.4-0.33-0.89-0.72-1.53-1.2
			c-1.57-1.19-3.13-2.46-4.66-3.81c-1.02-0.9-2.03-1.83-3.04-2.8c-0.46-0.45-0.94-0.9-1.4-1.37c-2.19-2.19-4.34-4.51-6.4-6.92
			c-0.49-0.56-0.97-1.13-1.46-1.71c-0.76-0.92-1.51-1.83-2.23-2.76c-0.39-0.48-0.76-0.96-1.12-1.43c-0.62-0.78-1.21-1.56-1.8-2.35
			c-7.41-9.9-13.86-20.65-18.9-30.19c-0.62-1.17-1.24-2.36-1.83-3.55c-0.55-1.07-1.08-2.14-1.61-3.24
			c-0.37-0.76-0.75-1.54-1.12-2.32c-1.2-2.49-2.35-5-3.46-7.52c-0.49-1.11-0.97-2.21-1.44-3.32c-0.42-0.97-0.82-1.95-1.23-2.92
			c-1.23-2.99-2.42-6-3.55-9.01c-0.39-1.01-0.76-2.02-1.12-3.03c-0.53-1.47-1.07-2.95-1.59-4.42c-0.36-1.05-0.72-2.1-1.07-3.15
			c-1.67-4.96-3.23-9.94-4.67-14.91c-1.89-6.5-4.79-12.58-7.19-18.91c-0.97-2.57-2.71-6.06-4.01-9.3c2.74-0.66,5.48-1.26,8.22-1.78
			c10.15-1.97,20.24-3.09,29.64-3.4c0.69-0.03,1.37-0.04,2.06-0.05c-0.01-0.12-0.03-0.23-0.03-0.34c-0.22-2.83-0.43-5.67-0.65-8.49
			c1.56-0.05,3.06-0.14,4.48-0.23c22.36-1.5,45.98-0.75,68.2,3.95c0.12,3.24,0.22,6.47,0.16,9.68c3.36,0.26,6.73,0.57,10.06,0.98
			c0.03,0.01,0.07,0.01,0.1,0.01c5.13,0.66,10.18,1.54,14.97,2.79c3.76,1,7.77,2.21,11.81,3.69c0.46,0.16,0.91,0.33,1.37,0.51
			C1094.6,535.69,1094.61,535.58,1094.61,535.45z"/>
		<path class="st3" d="M1079.13,412.66c0.33-0.32,1.18-0.32,1.62-0.36c1.32-0.13,2.67,0.03,3.88,0.55c2.91,1.25,4.31,4.02,4.53,6.91
			c0.2,2.61-0.42,5.87-2.43,7.82c-2.04,1.99-5.17,2.47-7.88,1.56c-2.91-0.98-3.93-3.19-4.73-5.82c-0.67-2.21-0.9-4.35,0.06-6.52
			C1075.13,414.65,1077.65,413.35,1079.13,412.66z"/>
		<path class="st0" d="M1018.46,563.65c-4.91,1.96-14.14,11.41-17.01,16.43c-4.72,8.24,7.58,17.77,14.3,22.23
			c1.78,1.18,5.61,4.62,7.74,4.46c4.13-0.31,8.54-8.48,10.62-11.31c6.53-8.92,7.7-13.24,0.44-22.03
			C1031.69,569.96,1023.49,560.82,1018.46,563.65z"/>
		<path class="st0" d="M1044.24,648.3c-5.08,6.76-10.99,14.84-18.3,19.6c-4.21,2.74-2.75,2.65-6.83-0.42
			c-7.96-6.01-15.44-14.23-22.12-23.15c1.6-3.67,3.97-7.17,6.19-10.58c3.98-6.12,7.67-12.2,12.08-18.07
			c1.38-1.84,3.75-7.48,6.07-9.52c0.59-0.51,1.17-0.79,1.73-0.72c-1.47-1.67-0.89-2.23-0.07-2.54c1.2,0.9,2.25,1.8,3.19,2.72
			c3.63,3.54,5.54,7.29,7.89,12.43c4.79,10.47,9.59,18.25,10.16,29.96C1044.22,648.09,1044.24,648.2,1044.24,648.3z"/>
		<path class="st3" d="M1064.33,385.49c0.72-2.02,3.63-3.56,5.49-4.5c4.03-2.05,8.9-3.35,13.49-3.3c4.67,0.05,11.14,1.4,13.8,5.5
			c-7.4-2.92-15.01-1.27-21.9,2.16c-3.26,1.62-8.14,3.9-11,0.53C1064.32,385.68,1064.49,385.55,1064.33,385.49z"/>
		<path class="st7" d="M1094.59,535.81c0,0.07,0,0.14-0.01,0.2c0,0.07-0.01,0.12-0.01,0.18c-0.04,0.33-0.09,0.66-0.14,1
			c-0.09,0.49-0.2,1-0.33,1.5c-0.04,0.2-0.1,0.42-0.17,0.63c-0.52,1.91-1.24,3.86-1.74,5.61c-0.37,1.28-0.76,2.57-1.17,3.85
			c-0.04,0.16-0.09,0.31-0.14,0.46c-0.33,1.07-0.68,2.12-1.04,3.17c-0.13,0.38-0.26,0.75-0.39,1.12c-0.33,0.97-0.68,1.94-1.04,2.91
			c-5.13,14-11.94,27.64-18.38,41.2c-0.56,1.2-1.12,2.39-1.69,3.58c-0.58,1.23-1.15,2.46-1.72,3.69h-0.01
			c-3.06,0.97-5.68,0.42-8.23-1.04c-3.13-1.8-6.13-5-9.67-8.54c-3.17-3.17-6.34-6.38-9.33-9.72c-2.77-3.1-5.39-6.31-7.74-9.71
			c-2.6-3.78-4.67-8.22-7.5-11.8v-0.01c-0.13-0.16-0.26-0.33-0.39-0.48c-0.19-0.23-0.4-0.46-0.61-0.7c-0.14,0.19-0.3,0.38-0.46,0.56
			c-0.06,0.07-0.1,0.12-0.16,0.19c-6.65,8.19-13.97,15.84-21.57,23.3c-3,2.96-6.06,5.89-9.13,8.79
			c-5.18,4.94-10.41,9.85-15.54,14.82c-0.55-1.07-1.08-2.14-1.61-3.24c-0.37-0.76-0.75-1.54-1.12-2.32c-1.2-2.49-2.35-5-3.46-7.52
			c-0.49-1.11-0.97-2.21-1.44-3.32c-0.42-0.97-0.82-1.95-1.23-2.92c-1.23-2.99-2.42-6-3.55-9.01c-0.39-1.01-0.76-2.02-1.12-3.03
			c-0.53-1.47-1.07-2.95-1.59-4.42c-0.36-1.05-0.72-2.1-1.07-3.15c-1.67-4.96-3.23-9.94-4.67-14.91c-1.89-6.5-4.79-12.58-7.19-18.91
			c-0.97-2.57-2.71-6.06-4.01-9.3c2.74-0.66,5.48-1.26,8.22-1.78c10.15-1.97,20.24-3.09,29.64-3.4c0.69-0.03,1.37-0.04,2.06-0.05
			c-0.01-0.12-0.03-0.23-0.03-0.34c5.91,0.08,11.81,0.41,17.71,0.87c0.07,0,0.14,0,0.22,0.01c0.06,0,0.12,0.01,0.17,0.01
			c8.78,0.7,17.56,1.67,26.46,2.59c8.97,0.91,18.31,1.13,27.64,1.65c3.37,0.19,6.72,0.44,10.06,0.74c0.03,0.01,0.07,0.01,0.1,0.01
			c5.13,0.66,10.18,1.54,14.97,2.79c3.76,1,7.77,2.21,11.81,3.69C1093.68,535.47,1094.12,535.63,1094.59,535.81z"/>
		<path class="st3" d="M1015.73,414.88c-0.33-0.32-1.18-0.32-1.62-0.36c-1.32-0.13-2.67,0.03-3.88,0.55
			c-2.91,1.25-4.31,4.02-4.53,6.91c-0.2,2.61,0.42,5.87,2.43,7.82c2.04,1.99,5.17,2.47,7.88,1.56c2.91-0.98,3.93-3.19,4.73-5.82
			c0.67-2.21,0.9-4.35-0.06-6.52C1019.73,416.87,1017.21,415.57,1015.73,414.88z"/>
		<path class="st4" d="M1056.12,518.15c0.12,3.24,0.22,6.47,0.16,9.68v0.25c-0.07,4.14-0.4,8.21-1.31,12.11
			c-3.52,15.08-16.29,22.57-31.24,23.42c-0.22,0.01-0.42,0.03-0.62,0.03c-0.2,0.01-0.4,0.03-0.61,0.03
			c-1.33,0.04-2.67,0.03-4.02-0.03c0,0,0,0-0.01,0c-0.55-0.03-1.1-0.05-1.64-0.1c-17.17-1.26-29.6-6.62-31.23-22.93
			c-0.56-5.63-1.02-11.47-1.47-17.34c-0.01-0.12-0.03-0.23-0.03-0.34c-0.22-2.83-0.43-5.67-0.65-8.49
			c-0.79-10.02-1.66-19.95-3.04-29.02c2.29-0.91,1.53-3.51,2.18-5.75c1.17-4.02,4.48-7.84,8-10.42
			c16.44-12.03,50.72-7.54,61.61,9.29c5.02,7.76,4.25,18.49,3.85,27.18C1055.84,509.77,1055.99,513.95,1056.12,518.15z"/>
		<path class="st3" d="M1030.52,387.71c-0.72-2.02-3.63-3.56-5.49-4.5c-4.03-2.05-8.89-3.35-13.49-3.3
			c-4.67,0.05-11.14,1.4-13.8,5.5c7.4-2.92,15.01-1.27,21.9,2.16c3.26,1.62,8.14,3.9,11,0.53
			C1030.53,387.9,1030.36,387.77,1030.52,387.71z"/>
		<path class="st3" d="M1084.38,473.53c-0.63-3.67-0.7-6.18-2.87-9.69c-3.91-6.33-11.58-7.62-18.87-7.36
			c-15.05,0.53-33.51,4.12-43.86,15.28c-3.49,3.76-6.08,10.36-11.99,10.89c-9.81,0.87-18.79-11.9-22.68-18.74
			c-6.47-11.4-10.42-24.98-10.43-38.01c-0.01-4.71,0.24-11.33,2.77-15.55c2.63-4.39,5.18-3.06,5.1-7.99
			c-0.25-15.39-1.85-33.23,2.75-48.13c1.63-5.3,3.48-4.74,9.21-3.78c3.85,0.64,6.88,2.57,10.45,3.9c4.08,1.52,8.56,1.53,12.86,0.75
			c6.03-1.08,13.21-4.06,19.45-3.38c4.78,0.52,8.78,4.47,11.74,7.83c7.13,8.08,18.02,14.92,29.7,11.96
			c7.11-1.8,8.35-6.9,13.38-10.92c1.99,3.56,9.52,6.36,13.35,7.06c9.34,1.69,19.74-1.18,26.29-7.74
			c13.17-13.19,4.55-44.63-13.11-50.69c-4.67-1.6-9.37-1.54-14.13-0.31c-1.88,0.49-7.82,4.18-9.63,3.64
			c-1.48-0.44-2.32-3.78-3.16-4.98c-2.69-3.82-6.57-7.28-10.43-10c-17.06-12.01-38.5-15.07-59.41-12.5
			c-17.41,2.14-27.12,11.58-36.98,24.44c-5.69,7.42-12.74,14.01-20.44,19.53c-9.2,6.59-17.82,12.32-23.14,22.4
			c-7.96,15.07-4.41,35.77-0.33,51.65c3.7,14.43,12.33,27.18,16.24,41.55c3.1,11.39,2.47,24.68,8.26,35.01
			c2.88,5.14,7.07,9.23,11.64,13.14c14.59,12.5,33.45,21.92,51.83,28.31c6,2.09,11.87,3.16,18.34,2.32
			c5.13-0.66,10.97-2.72,15.32-5.26c4.8-2.81,9.46-5.95,14.09-9.01c7.91-5.21,16.92-10.86,22.05-18.8
			c7.87-12.18,10.01-25.94,10.64-39.93c0.09-2.01,1.1-8.36-0.78-9.77c-2.42,0.88-3.83,5.23-4.81,7.32
			c-2.08,4.41-3.91,7.8-7.02,11.63C1091.98,464.27,1087.96,468.74,1084.38,473.53z"/>
		<path class="st4" d="M962.38,414.15c-4.78-7.93-15.39-9.88-23.24-4.91c-11.17,7.07-8.56,26.31-2.04,35.54
			c4.72,6.68,20.01,16.91,27.17,7.3c4.77-6.39,3.09-15.62,2.32-22.8C966.15,424.97,966.95,416.52,962.38,414.15z"/>
		<path class="st1" d="M1034.66,709.35c-1.27-0.15-2.54-0.34-3.81-0.57c-9.16-1.58-16.78-2.67-25.9-6.91
			c-18.21-8.43-35.9-20.48-51.37-29.63c5.41-11.69,15.23-21.92,18.61-34.58c-8.77,1.6-23.62,10.87-29.9,16.87
			c-5.58-6.2-8.3-15.86-11.81-23.23c-6.98-14.71-10.42-30.69-13.6-46.47c-2.94-14.61-5.15-29.39-7.01-44.14
			c10.6-5.31,22.38-9.34,34.32-12.18c2.74-0.66,5.48-1.26,8.22-1.78c6.08,6.88,10.53,15.79,14.74,22.96
			c8.81,15.05,17.06,30.43,24.66,46.08c5.23,10.79,10.16,21.71,14.75,32.74c5.38,12.89,10.29,25.92,14.71,39.07
			c0.23,0.7,0.46,1.41,0.69,2.12c0.75,2.25,1.49,4.51,2.21,6.77c3.24,10.19,9.08,19.61,10.33,30.61
			C1034.57,707.84,1034.63,708.6,1034.66,709.35z"/>
		<path class="st0" d="M1201.29,760.26c0,0,154.18-3.06,189.69,4.79l-74.57,189.47c0,0-111.27,8.97-125.47,5.61
			C1190.94,960.13,1198.92,782.68,1201.29,760.26z"/>
		<path class="st1" d="M1112.81,571.82c-2.65,20.94-7.12,44.25-13.12,64.46c-9.31-1.39-19.49,2.32-29.2,1.83
			c4.54,4.85,11.1,8.56,16.77,12.15c1.53,0.97,8.07,3.46,8.69,5.27c2.31,6.72-17.26,23.89-21.7,28.02
			c-10.76,10.02-24.15,18.97-38.15,25.73c-1.21,0.59-2.42,1.15-3.63,1.71c-4.53,2.03-9.1,3.84-13.64,5.38
			c-8.26,2.79-22.9,11.85-19,2.55c0.71-4.79,2.67-10.82,5.12-17.06c3.35-8.45,7.58-17.32,10.9-24.09c1.49-3.05,3.1-6.09,4.79-9.11
			c0.2-0.37,0.4-0.74,0.62-1.11c5.31-9.37,11.38-18.59,17.17-27.44c1.1-1.68,2.16-3.36,3.22-5.07v-0.01
			c6.21-10.09,11.56-20.58,16.71-31.18c7.77-16.01,15.08-32.23,24.15-47.65c3.96-6.73,7.21-13.92,10.71-20.92
			c0.46,0.16,0.91,0.33,1.37,0.51c0.01-0.12,0.03-0.23,0.03-0.36c0,0.11-0.01,0.23-0.01,0.36v0.01c7.06,2.68,14.12,6.19,19.91,10.71
			C1114.9,555.09,1113.76,564.26,1112.81,571.82z"/>
		<path class="st4" d="M1384.76,831.48c-8.75-2.29-20.25-2.22-29.62-3.52c-9.42-1.3-20.21-2.78-29.62-1.24
			c-12.48,2.04-16.13,12.73-11.65,23.12c-5.33,2.01-6,7.99-4.55,12.54c0.52,1.64,2.7,3.27,2.94,4.93c0.37,2.54-0.95,2.55-1.32,4.99
			c-1.11,7.35,2.09,9.36,4.69,15.86c3.06,7.66,3.52,11.44,12.34,15.65c13.46,6.43,27.4,7.73,39.24-1.19
			c14.1-10.62,22.44-31.22,23.03-47.97C1390.65,843.44,1391.3,833.87,1384.76,831.48z"/>
		<path class="st1" d="M1008.03,1252.76c-0.92,0.03-1.8,0.05-2.68,0.08l-5.52-533.91l4.07-0.34L1008.03,1252.76z"/>
		<path class="st1" d="M932.21,1121.53h-8.09c-24.61,0-44.56-19.95-44.56-44.56v-37.15h97.21v37.15
			C976.78,1101.58,956.83,1121.53,932.21,1121.53z"/>
		<path class="st1" d="M1104.33,1121.53h-1.72c-17.31,0-31.33-14.03-31.33-31.33v-50.38h64.39v50.38
			C1135.66,1107.5,1121.63,1121.53,1104.33,1121.53z"/>
		<path class="st3" d="M983.44,514.44c0.09,1.08,0.16,2.17,0.25,3.25c-6.88,2.18-13.16,5.68-18.67,10.13
			c-22.71,18.37-32.84,47.24-36.9,74.4c-2.16,14.5-2.93,29.35-2.19,43.97c0.76,15.17,3.58,30.41,10.11,44.36
			c1.11,2.4-2.62,4.48-3.75,2.08c-1.63-3.51-3.1-7.09-4.34-10.73c-5.08-14.95-6.65-30.81-6.57-46.46
			c0.07-14.95,1.37-30.02,4.43-44.71c2.97-14.26,7.79-28.3,15.31-41.01c7.38-12.47,17.52-24.24,30.74-31.47
			c3.68-2.01,7.54-3.55,11.52-4.77C983.38,513.8,983.41,514.12,983.44,514.44z"/>
		<path class="st3" d="M1113.53,625.52c0.01,2.27,0,4.55-0.04,6.81l-4.2-0.16c0.06-2.25,0.09-4.49,0.07-6.73
			c-0.07-14.2-1.43-28.38-4.2-42.24c-2.9-14.48-7.76-28.82-16.48-41.15c-7.71-10.93-18.57-20.36-31.66-25.09
			c-0.32-0.11-0.63-0.23-0.95-0.33c-0.04-1.45-0.09-2.88-0.1-4.3c4.04,1.27,7.96,2.91,11.74,5c27.71,15.4,39.13,45.9,43.3,74.51
			C1112.64,603.01,1113.47,614.25,1113.53,625.52z"/>
		<path class="st3" d="M1142.07,640.77c-6.49-6.93-15.37-12.81-25.04-14.76c-11.14-2.24-21.26,1.85-29.85,8.39
			c-15.46,11.76-26,29.67-28.94,48.2c-3.07,19.38,1.76,39.67,13.54,55.82c1.53,2.1,3.17,4.12,4.89,6.07c1.25,1.42,3.81,1.22,5.1,0
			c1.48-1.4,1.25-3.41,0-4.83c-12-13.65-18.18-31.63-17.18-49.35c0.96-17.02,8.87-33.6,21.46-45.73
			c6.14-5.91,14.08-12.02,23.22-12.43c9.05-0.4,17.79,4.35,24.22,10.05c12.06,10.67,18.16,26.58,17.58,42.07
			c-0.73,19.75-11.69,38.05-26.4,51.58c-3.33,3.07,1.77,7.89,5.1,4.83c14.66-13.49,25.39-31.08,27.99-50.45
			C1160.12,672.65,1154.56,654.11,1142.07,640.77z"/>
		<ellipse class="st3" cx="935.15" cy="697.77" rx="14.05" ry="13.31"/>
	</g>
</g>
</svg>
